<?xml version="1.0" standalone="no"?>
<!DOCTYPE svg PUBLIC "-//W3C//DTD SVG 20010904//EN"
 "http://www.w3.org/TR/2001/REC-SVG-20010904/DTD/svg10.dtd">
<svg version="1.0" xmlns="http://www.w3.org/2000/svg"
 width="5626.000000pt" height="2530.000000pt" viewBox="0 0 5626.000000 2530.000000"
 preserveAspectRatio="xMidYMid meet">
<metadata>
Created by potrace 1.15, written by Peter Selinger 2001-2017
</metadata>
<g transform="translate(0.000000,2530.000000) scale(0.100000,-0.100000)"
fill="#000000" stroke="none">
<path d="M40833 24644 c-10 -26 10 -68 40 -82 33 -16 112 -106 149 -169 16
-28 39 -51 57 -59 27 -12 46 -34 102 -121 12 -18 26 -33 33 -33 16 0 122 -113
142 -151 8 -17 30 -39 47 -49 18 -11 43 -40 57 -65 16 -30 36 -51 57 -60 17
-7 39 -25 48 -39 9 -14 48 -57 86 -95 38 -39 78 -90 89 -114 12 -24 32 -50 46
-57 13 -8 38 -34 54 -59 16 -25 56 -77 90 -116 33 -38 106 -140 163 -225 128
-192 134 -202 170 -270 16 -30 37 -66 47 -80 28 -41 108 -215 162 -349 27 -69
54 -130 59 -135 5 -6 9 -22 9 -36 0 -14 6 -34 14 -45 16 -23 62 -188 81 -290
7 -38 18 -83 25 -100 6 -16 10 -55 9 -85 -2 -35 3 -66 13 -85 20 -40 27 -216
17 -460 -10 -234 -23 -337 -64 -490 -8 -27 -21 -84 -31 -125 -9 -41 -27 -97
-39 -125 -12 -27 -31 -77 -42 -110 -25 -73 -81 -198 -111 -245 -12 -19 -25
-46 -29 -60 -3 -14 -14 -35 -25 -46 -11 -12 -25 -39 -31 -60 -16 -51 -104
-207 -143 -253 -17 -20 -38 -50 -47 -67 -9 -18 -27 -34 -42 -38 -16 -4 -25
-13 -25 -26 0 -31 -21 -67 -46 -78 -14 -7 -27 -26 -35 -52 -12 -39 -47 -87
-110 -149 -14 -14 -32 -38 -40 -53 -20 -37 -139 -169 -234 -259 -44 -42 -88
-85 -99 -96 -137 -149 -417 -395 -486 -427 -14 -6 -45 -31 -70 -56 -46 -46
-285 -220 -303 -220 -5 0 -28 -15 -51 -34 -45 -36 -101 -67 -158 -85 -24 -8
-44 -24 -57 -46 -11 -18 -30 -40 -43 -48 -13 -7 -64 -39 -114 -70 -51 -31 -98
-57 -106 -57 -8 0 -35 -14 -59 -32 -24 -18 -64 -43 -89 -56 -138 -74 -191
-100 -241 -117 -29 -11 -63 -27 -75 -37 -11 -10 -30 -18 -42 -18 -12 0 -32
-10 -44 -22 -22 -22 -263 -148 -283 -148 -5 0 -77 -33 -160 -74 -183 -91 -291
-137 -370 -160 -33 -10 -87 -30 -120 -46 -147 -71 -488 -190 -544 -190 -21 0
-52 -12 -80 -30 -26 -16 -87 -40 -136 -54 -50 -13 -110 -33 -135 -45 -25 -11
-56 -21 -70 -21 -14 0 -35 -7 -46 -15 -12 -8 -56 -24 -99 -35 -43 -12 -82 -23
-86 -25 -6 -4 -77 -24 -319 -87 -41 -11 -93 -23 -115 -27 -22 -4 -62 -14 -90
-23 -117 -38 -164 -49 -231 -57 -39 -5 -80 -13 -90 -19 -26 -13 -157 -42 -193
-42 -17 0 -77 -13 -133 -29 -57 -16 -157 -36 -223 -46 -66 -9 -148 -25 -183
-36 -34 -10 -89 -19 -122 -19 -32 0 -85 -7 -117 -15 -31 -8 -79 -15 -105 -15
-26 0 -65 -6 -85 -14 -53 -19 -143 -36 -243 -47 -114 -12 -212 -25 -290 -39
-36 -6 -80 -8 -98 -5 -19 4 -53 0 -80 -9 -26 -8 -99 -17 -162 -19 -63 -3 -128
-10 -145 -15 -30 -11 -140 -17 -485 -28 -96 -3 -188 -9 -204 -15 -16 -5 -45
-9 -65 -9 -20 0 -52 -4 -71 -10 -30 -8 -604 -22 -925 -23 -261 -1 -814 15
-854 24 -24 5 -56 7 -71 4 -54 -12 -76 7 -105 92 -15 43 -29 92 -32 108 -3 17
-11 39 -18 50 -7 11 -15 45 -19 77 -3 31 -19 85 -34 120 -16 34 -34 90 -42
123 -13 59 -45 187 -73 295 -8 30 -20 82 -28 115 -7 33 -21 84 -31 114 -10 30
-18 69 -18 86 0 18 -6 55 -14 81 -8 27 -20 76 -26 109 -7 33 -19 85 -27 115
-28 108 -42 176 -46 240 -3 36 -15 86 -26 113 -24 57 -52 194 -58 297 -3 41
-11 84 -18 95 -13 19 -29 117 -44 255 -3 36 -10 71 -15 78 -5 8 -12 39 -16 70
-5 32 -13 86 -19 122 -37 229 -62 397 -71 475 -5 50 -14 117 -20 150 -5 33
-10 83 -10 112 0 28 -7 78 -14 110 -8 32 -18 90 -21 128 -3 39 -10 108 -16
155 -5 47 -14 128 -18 180 -5 52 -14 136 -20 185 -6 50 -18 180 -25 290 -9
128 -19 216 -30 245 -9 25 -21 92 -27 150 -7 60 -22 132 -35 169 -16 42 -24
85 -24 128 0 39 -6 76 -16 95 -9 17 -14 39 -11 49 3 10 -4 35 -14 56 -10 20
-19 48 -19 61 0 13 -5 32 -11 43 -5 11 -17 59 -25 107 -21 122 -44 234 -50
244 -9 14 -26 117 -29 173 -3 56 -38 135 -60 135 -17 0 -55 -47 -55 -69 0 -10
-7 -26 -15 -37 -8 -10 -15 -37 -15 -59 0 -25 -9 -53 -24 -75 -13 -19 -26 -57
-31 -85 -4 -27 -15 -66 -26 -87 -10 -20 -19 -43 -19 -49 0 -7 -13 -42 -28 -78
-16 -36 -37 -88 -46 -116 -10 -27 -26 -74 -37 -104 -10 -29 -28 -68 -39 -86
-11 -18 -20 -43 -20 -56 0 -13 -12 -51 -25 -84 -14 -33 -25 -67 -25 -75 0 -9
-6 -24 -13 -35 -8 -11 -21 -40 -31 -65 -10 -25 -24 -58 -31 -75 -16 -35 -73
-196 -84 -240 -4 -16 -17 -48 -28 -70 -11 -22 -24 -51 -28 -65 -4 -14 -18 -48
-31 -77 -13 -28 -24 -58 -24 -66 0 -8 -11 -31 -25 -51 -14 -20 -25 -50 -25
-65 0 -38 -66 -178 -89 -191 -12 -6 -17 -17 -14 -28 7 -28 -41 -189 -83 -277
-13 -27 -33 -84 -45 -125 -12 -41 -37 -107 -56 -146 -18 -40 -33 -79 -33 -87
0 -8 -9 -26 -20 -39 -11 -14 -25 -47 -31 -74 -16 -65 -31 -113 -69 -209 -17
-44 -37 -99 -44 -122 -8 -23 -23 -55 -35 -71 -11 -17 -21 -41 -21 -55 0 -13
-10 -44 -23 -68 -13 -24 -26 -61 -30 -83 -9 -56 -34 -89 -60 -81 -22 7 -137
15 -192 14 -16 0 -109 0 -205 0 -422 1 -827 -5 -960 -14 -41 -3 -152 -7 -247
-9 -94 -2 -177 -7 -183 -11 -6 -4 -21 -4 -33 -1 -27 6 -56 62 -103 191 -61
172 -95 260 -119 313 -14 29 -25 61 -25 73 0 11 -11 42 -25 69 -14 27 -25 56
-25 64 0 8 -11 36 -25 62 -14 26 -25 59 -25 74 0 15 -20 67 -45 116 -24 49
-50 111 -56 139 -7 27 -23 70 -36 94 -12 24 -23 51 -23 60 0 9 -14 43 -30 76
-17 33 -30 71 -30 85 0 14 -9 36 -20 50 -11 14 -20 31 -20 39 0 17 -38 121
-80 221 -17 41 -38 95 -47 120 -9 25 -19 50 -24 55 -4 6 -24 55 -44 110 -20
55 -45 119 -56 142 -11 23 -31 75 -45 115 -35 103 -94 235 -156 353 -39 74
-160 316 -172 345 -38 88 -203 404 -213 407 -17 6 -32 -35 -48 -137 -7 -47
-18 -101 -24 -120 -6 -19 -11 -49 -11 -66 0 -17 -7 -51 -16 -75 -15 -43 -24
-88 -43 -236 -6 -40 -17 -96 -26 -125 -18 -57 -31 -124 -45 -230 -5 -38 -12
-74 -17 -80 -4 -7 -11 -42 -15 -78 -12 -121 -39 -315 -49 -365 -6 -27 -15
-113 -19 -190 -5 -77 -13 -183 -19 -235 -6 -52 -16 -149 -21 -215 -9 -109 -23
-230 -36 -310 -2 -16 -9 -82 -14 -145 -5 -63 -15 -140 -20 -170 -6 -30 -15
-91 -20 -135 -4 -44 -16 -147 -25 -230 -9 -82 -22 -159 -29 -170 -7 -11 -16
-65 -19 -120 -3 -55 -18 -165 -32 -245 -14 -80 -30 -171 -36 -202 -5 -32 -14
-69 -19 -83 -5 -13 -14 -60 -19 -103 -6 -44 -17 -99 -27 -123 -9 -24 -20 -78
-25 -119 -5 -41 -18 -102 -29 -134 -11 -33 -20 -72 -20 -86 0 -14 -12 -42 -26
-61 -21 -28 -25 -41 -20 -77 6 -44 -2 -79 -70 -327 -19 -71 -39 -148 -44 -170
-5 -22 -19 -65 -31 -95 -12 -30 -28 -88 -35 -128 -8 -40 -23 -86 -34 -102 -25
-35 -60 -144 -60 -190 0 -19 -9 -54 -19 -76 -10 -23 -22 -57 -26 -75 -4 -19
-14 -43 -21 -54 -8 -11 -14 -32 -14 -48 0 -16 -10 -38 -24 -52 l-24 -24 -593
0 c-327 1 -704 5 -839 10 -135 5 -308 12 -385 14 -77 2 -183 9 -235 15 -52 5
-120 10 -150 9 -30 0 -111 4 -180 10 -69 6 -170 14 -225 17 -64 4 -109 11
-124 21 -19 12 -42 14 -100 10 -42 -3 -114 -1 -161 4 -47 5 -150 13 -230 18
-80 5 -179 16 -220 25 -41 9 -129 21 -195 27 -167 14 -424 49 -535 71 -30 7
-68 13 -85 14 -57 4 -212 31 -224 38 -11 7 -103 23 -261 46 -110 16 -234 51
-253 73 -15 17 -21 18 -47 7 -19 -8 -43 -10 -67 -4 -21 4 -42 9 -48 9 -66 9
-122 22 -179 41 -38 13 -92 27 -120 30 -105 13 -408 89 -511 128 -22 8 -51 15
-63 16 -49 0 -441 127 -492 159 -19 11 -47 21 -62 21 -54 0 -143 30 -165 54
-17 20 -28 24 -55 20 -42 -7 -173 38 -209 72 -18 17 -37 24 -65 24 -22 0 -52
9 -69 20 -16 11 -61 29 -100 40 -38 12 -107 39 -152 60 -45 22 -89 40 -98 40
-8 0 -41 13 -73 29 -31 15 -75 34 -96 41 -22 7 -58 27 -82 45 -23 18 -55 35
-71 39 -41 10 -114 46 -145 71 -14 12 -43 25 -65 28 -49 8 -165 76 -178 104
-5 12 -20 24 -35 26 -50 10 -115 39 -140 62 -14 13 -45 32 -70 43 -25 11 -54
29 -64 41 -11 11 -24 21 -31 21 -18 0 -110 47 -124 64 -7 8 -32 24 -55 36 -23
11 -60 35 -82 54 -21 18 -50 39 -64 47 -50 27 -123 85 -179 142 -33 32 -66 57
-78 57 -62 0 -584 479 -801 735 -51 61 -110 130 -131 155 -21 25 -46 59 -56
75 -11 17 -32 45 -47 63 -15 18 -28 41 -28 51 0 10 -18 36 -40 59 -22 22 -40
50 -40 61 0 11 -9 25 -20 31 -34 18 -118 157 -236 388 -29 57 -57 109 -62 115
-5 7 -17 35 -27 62 -10 28 -33 82 -50 120 -57 123 -85 202 -85 238 0 19 -8 45
-19 58 -10 13 -26 44 -34 69 -9 25 -23 63 -31 85 -8 22 -15 55 -16 73 0 18 -8
49 -19 70 -25 50 -80 277 -92 379 -5 45 -14 94 -19 108 -6 15 -19 102 -31 193
-31 251 -28 642 6 786 29 125 86 280 133 366 26 47 53 101 60 120 7 19 23 46
35 60 12 14 30 41 41 61 10 20 35 58 57 84 21 26 39 51 39 56 0 17 207 246
335 370 39 38 77 76 85 85 60 66 130 129 156 140 17 7 51 36 74 64 23 28 61
61 84 75 22 13 47 33 53 44 7 11 27 28 45 37 35 18 178 133 178 143 0 5 112
98 261 216 31 24 69 47 83 51 17 4 37 22 52 46 14 21 33 42 42 45 9 3 38 25
63 49 25 23 84 67 130 98 46 31 115 79 153 106 38 28 76 50 83 50 24 0 83 45
80 60 -2 13 -29 14 -187 11 -102 -2 -207 -7 -235 -12 -27 -4 -93 -14 -145 -22
-52 -9 -102 -18 -110 -21 -16 -6 -182 -25 -288 -33 -35 -2 -84 -10 -108 -18
-27 -8 -66 -11 -99 -8 -42 4 -60 1 -87 -14 -18 -11 -60 -26 -93 -33 -33 -7
-73 -16 -90 -21 -16 -4 -53 -10 -80 -13 -28 -2 -66 -11 -85 -19 -47 -21 -223
-67 -254 -67 -13 0 -46 -9 -73 -21 -26 -11 -81 -27 -121 -35 -41 -8 -86 -22
-100 -32 -31 -21 -133 -54 -242 -78 -41 -9 -97 -27 -123 -40 -27 -13 -62 -24
-78 -24 -16 0 -42 -9 -57 -20 -15 -11 -50 -25 -77 -30 -86 -15 -121 -27 -151
-48 -16 -12 -47 -26 -69 -31 -98 -24 -281 -85 -335 -111 -19 -10 -55 -20 -78
-24 -24 -4 -61 -15 -83 -26 -21 -11 -54 -20 -72 -20 -23 0 -47 -10 -71 -29
-20 -16 -53 -32 -73 -36 -21 -4 -42 -10 -48 -15 -17 -13 -138 -59 -175 -66
-19 -4 -49 -15 -66 -25 -18 -11 -56 -28 -85 -38 -188 -66 -231 -80 -243 -75
-7 3 -19 -2 -26 -11 -13 -16 -191 -105 -210 -105 -6 0 -41 -15 -78 -34 -38
-19 -85 -37 -105 -41 -19 -4 -60 -22 -89 -41 -29 -19 -64 -37 -78 -40 -53 -11
-109 -36 -193 -84 -48 -28 -93 -50 -100 -50 -7 0 -22 -7 -33 -15 -10 -8 -29
-15 -40 -15 -12 0 -27 -7 -34 -15 -15 -19 -192 -106 -250 -125 -25 -7 -56 -24
-71 -37 -14 -13 -32 -23 -40 -23 -7 -1 -39 -16 -69 -35 -30 -19 -66 -40 -80
-46 -87 -40 -130 -62 -130 -69 0 -10 -143 -94 -265 -155 -55 -28 -131 -74
-169 -103 -38 -28 -73 -52 -78 -52 -5 0 -30 -15 -57 -32 -26 -18 -78 -51 -115
-73 -37 -22 -81 -50 -99 -62 -18 -12 -57 -36 -89 -52 -64 -35 -112 -65 -183
-116 -67 -49 -162 -111 -249 -162 -39 -23 -89 -56 -111 -73 -22 -17 -74 -52
-115 -78 -42 -26 -87 -55 -100 -65 -73 -52 -194 -127 -206 -127 -8 0 -19 -9
-26 -20 -7 -11 -56 -49 -108 -83 -52 -34 -127 -84 -167 -112 -39 -27 -94 -63
-123 -80 -28 -16 -84 -57 -123 -89 -40 -33 -112 -85 -162 -117 -49 -32 -106
-71 -125 -87 -19 -16 -62 -47 -95 -70 -128 -89 -151 -105 -195 -141 -25 -20
-74 -58 -110 -84 -36 -26 -94 -70 -130 -97 -45 -35 -73 -50 -95 -50 -34 0 -55
-15 -55 -40 0 -21 -41 -60 -63 -60 -9 0 -45 -28 -80 -62 -85 -85 -157 -143
-199 -161 -19 -8 -49 -34 -68 -57 -19 -23 -58 -58 -89 -78 -30 -19 -64 -45
-75 -57 -25 -27 -205 -179 -261 -220 -22 -16 -51 -39 -65 -52 -79 -71 -168
-147 -190 -161 -14 -9 -58 -49 -99 -89 -41 -41 -95 -86 -120 -100 -44 -26
-131 -107 -131 -123 0 -4 -62 -63 -137 -131 -76 -68 -159 -145 -184 -171 -31
-31 -56 -48 -72 -48 -18 0 -28 -9 -42 -40 -10 -23 -64 -85 -127 -147 -215
-211 -523 -530 -647 -668 -30 -33 -80 -87 -111 -120 -56 -59 -322 -368 -410
-477 -25 -30 -57 -62 -73 -71 -15 -9 -32 -28 -37 -42 -5 -14 -14 -25 -20 -25
-5 0 -17 -17 -25 -37 -9 -21 -37 -62 -64 -93 -26 -30 -66 -80 -89 -110 -22
-30 -75 -98 -116 -150 -42 -52 -87 -111 -100 -130 -14 -19 -48 -66 -75 -105
-28 -38 -74 -104 -102 -145 -28 -41 -61 -85 -72 -98 -11 -12 -30 -38 -41 -56
-12 -19 -46 -72 -77 -118 -31 -46 -82 -123 -114 -173 -32 -49 -74 -110 -93
-134 -39 -48 -57 -78 -96 -159 -14 -29 -41 -71 -60 -94 -19 -22 -51 -73 -71
-113 -20 -40 -49 -93 -65 -117 -16 -24 -30 -46 -30 -50 0 -12 -66 -113 -82
-126 -8 -6 -23 -31 -33 -54 -36 -85 -77 -168 -85 -173 -5 -3 -38 -67 -75 -142
-37 -76 -78 -151 -91 -166 -13 -16 -24 -35 -24 -44 0 -8 -9 -26 -20 -40 -11
-14 -20 -33 -20 -42 0 -9 -7 -27 -16 -39 -9 -13 -33 -65 -54 -117 -21 -53 -48
-107 -59 -121 -12 -15 -21 -33 -21 -41 0 -12 -41 -97 -69 -143 -5 -8 -24 -61
-42 -118 -17 -56 -35 -105 -40 -107 -9 -6 -59 -113 -59 -127 0 -13 -64 -178
-94 -243 -13 -27 -31 -72 -41 -100 -15 -44 -35 -98 -81 -215 -7 -19 -13 -46
-14 -58 0 -13 -8 -36 -19 -50 -10 -15 -22 -46 -26 -70 -4 -24 -16 -69 -27
-100 -11 -31 -24 -70 -28 -87 -5 -16 -20 -61 -34 -100 -14 -38 -26 -78 -26
-87 0 -10 -9 -34 -19 -55 -11 -21 -22 -58 -26 -83 -4 -25 -13 -57 -21 -71 -7
-14 -20 -63 -30 -110 -9 -46 -21 -95 -27 -109 -12 -30 -25 -88 -36 -156 -5
-27 -19 -72 -31 -100 -13 -27 -26 -74 -31 -104 -13 -87 -56 -290 -74 -350 -9
-30 -20 -94 -24 -141 -6 -55 -17 -101 -31 -129 -17 -34 -24 -66 -26 -131 -2
-48 -10 -104 -18 -126 -20 -55 -27 -114 -14 -130 13 -16 62 -17 91 -1 12 6 56
19 97 29 161 38 206 50 243 64 20 8 51 15 68 15 16 0 47 9 67 19 20 10 66 27
102 36 36 9 99 25 140 36 41 11 118 28 171 39 93 19 179 42 227 61 13 5 51 9
86 9 39 0 69 5 82 15 10 8 29 15 42 15 13 0 31 4 41 10 47 24 342 73 397 64
38 -5 50 -2 86 21 26 18 63 30 102 36 34 4 93 14 131 23 39 8 122 20 185 26
63 7 123 16 133 22 23 12 154 28 280 34 54 2 107 9 118 14 45 25 109 34 459
64 96 9 211 23 255 31 44 9 163 20 265 25 102 6 208 15 235 20 28 5 140 15
250 21 110 6 245 15 300 20 55 5 273 13 485 18 212 5 403 10 425 11 141 4 898
-12 935 -20 25 -6 59 -10 75 -10 17 1 86 -4 155 -9 69 -6 199 -15 290 -22 277
-19 388 -30 585 -59 83 -12 179 -24 215 -26 36 -3 72 -8 80 -11 8 -4 53 -10
100 -13 47 -4 119 -16 160 -27 41 -11 109 -23 150 -27 41 -4 89 -11 105 -16
17 -5 53 -13 80 -18 28 -6 82 -18 120 -27 39 -9 99 -20 135 -25 99 -12 199
-37 260 -64 30 -13 82 -29 115 -36 131 -26 147 -30 183 -47 20 -10 52 -18 72
-19 63 -3 144 -21 186 -42 22 -11 54 -24 70 -27 43 -10 235 -75 266 -91 15 -8
40 -14 55 -14 15 0 48 -14 72 -30 24 -17 57 -30 72 -30 16 0 50 -11 76 -25 27
-13 89 -36 138 -51 50 -15 115 -39 145 -54 30 -15 66 -31 80 -35 14 -4 39 -18
57 -31 17 -13 52 -31 78 -40 86 -29 365 -178 525 -279 47 -30 114 -71 149 -92
36 -20 86 -56 113 -80 27 -24 53 -43 58 -43 6 0 19 -14 30 -32 11 -18 33 -36
52 -42 22 -8 34 -18 36 -33 4 -30 48 -63 83 -63 22 0 60 -27 166 -119 124
-106 231 -207 289 -273 11 -13 57 -62 101 -110 110 -119 323 -399 323 -425 0
-3 14 -24 30 -47 107 -143 320 -576 352 -715 6 -24 20 -63 33 -86 12 -23 39
-105 59 -181 20 -76 41 -152 46 -169 5 -16 14 -64 20 -105 6 -41 15 -94 21
-118 5 -23 9 -60 9 -81 0 -21 8 -71 19 -112 10 -41 22 -117 26 -169 4 -52 9
-120 12 -150 2 -30 6 -140 9 -245 2 -104 8 -291 12 -415 7 -223 7 -225 30
-228 15 -2 33 8 56 32 23 25 42 36 61 36 20 0 39 12 68 45 22 25 46 45 53 45
12 0 37 18 171 122 34 26 102 74 151 106 48 32 104 70 123 84 18 15 61 41 94
58 33 17 69 40 80 50 11 10 38 27 60 39 22 12 60 35 85 51 25 16 68 41 95 56
28 14 86 45 130 70 104 56 313 159 345 169 14 4 36 16 50 25 36 25 153 77 192
85 18 4 47 15 64 25 62 36 237 100 271 100 23 0 46 9 65 25 16 14 41 25 54 25
14 0 38 7 55 15 26 14 191 65 329 102 100 27 233 53 267 53 19 0 44 7 58 16
15 9 58 17 117 21 65 4 105 12 133 26 22 12 67 24 100 28 64 7 273 32 415 50
151 18 424 29 612 24 101 -3 239 -5 308 -5 144 0 335 -22 400 -45 33 -12 50
-14 67 -6 33 15 401 -18 469 -42 22 -8 76 -18 120 -22 43 -4 117 -16 164 -26
47 -11 127 -28 177 -38 51 -11 103 -27 115 -35 12 -9 43 -16 68 -16 25 0 96
-16 159 -35 62 -19 121 -35 130 -35 33 0 172 -49 197 -69 17 -14 41 -21 68
-21 22 0 55 -7 71 -16 17 -9 63 -27 104 -39 40 -13 83 -32 95 -43 23 -21 91
-46 103 -39 18 11 122 -17 178 -48 33 -18 80 -36 104 -40 45 -7 137 -47 181
-78 13 -9 34 -17 45 -17 11 0 61 -20 110 -44 50 -25 126 -59 170 -76 44 -17
96 -41 115 -52 76 -45 202 -108 218 -108 9 0 28 -9 42 -20 14 -11 31 -20 38
-20 8 0 39 -15 70 -34 166 -99 216 -126 232 -126 9 0 32 -10 51 -23 19 -12 64
-40 101 -60 37 -21 70 -42 73 -47 4 -6 23 -17 42 -25 20 -9 43 -24 50 -35 8
-11 21 -20 29 -20 25 0 127 -56 161 -89 18 -17 43 -31 57 -31 13 0 39 -12 59
-27 20 -16 74 -50 120 -76 47 -26 93 -57 103 -69 11 -11 41 -31 67 -44 26 -14
65 -40 86 -59 21 -19 42 -35 46 -35 8 0 112 -69 180 -119 22 -16 63 -43 90
-59 28 -16 68 -44 90 -61 22 -18 104 -79 182 -136 78 -58 151 -118 163 -135
12 -16 27 -30 35 -30 7 0 37 -19 66 -42 28 -24 71 -56 94 -73 42 -30 68 -52
215 -180 41 -36 125 -107 185 -158 61 -52 174 -153 253 -226 217 -201 736
-725 792 -799 14 -19 50 -58 80 -87 30 -30 78 -84 105 -121 28 -37 69 -86 92
-109 66 -65 180 -214 190 -248 6 -22 21 -39 48 -54 42 -23 104 -97 105 -124 0
-9 7 -23 17 -30 19 -16 105 -125 146 -184 15 -22 52 -71 82 -109 30 -38 55
-73 55 -77 0 -4 16 -26 35 -49 19 -23 35 -52 35 -63 0 -42 12 -62 43 -77 17
-8 43 -34 57 -57 14 -22 42 -66 62 -96 21 -30 38 -57 38 -62 0 -4 12 -21 26
-39 45 -55 91 -130 104 -171 8 -22 26 -53 41 -70 31 -35 59 -87 59 -110 0 -9
11 -26 24 -38 13 -12 40 -53 60 -92 20 -38 56 -106 81 -150 26 -44 60 -109 77
-145 16 -36 61 -129 99 -207 38 -78 69 -147 69 -154 0 -7 16 -43 35 -80 19
-38 35 -75 35 -83 0 -9 11 -39 24 -68 43 -92 115 -272 122 -303 4 -16 17 -50
29 -75 22 -44 95 -224 95 -235 0 -20 65 -145 76 -145 7 0 20 13 29 29 8 16 24
32 35 36 16 5 20 15 20 48 0 25 10 60 24 87 13 25 32 73 41 105 10 33 30 87
46 120 16 33 48 112 73 175 24 63 62 153 84 200 22 47 43 96 47 110 7 23 48
111 98 207 12 22 34 51 50 63 20 16 27 30 27 56 0 25 19 69 67 152 84 146 130
220 159 251 13 13 26 36 29 50 8 31 97 166 131 199 13 13 24 29 24 37 0 8 13
29 29 47 16 18 35 49 44 69 8 19 28 51 44 70 16 19 54 73 85 120 31 47 71 99
87 115 17 16 31 35 31 42 0 7 14 27 30 45 17 17 45 55 63 82 63 99 347 457
487 615 32 36 89 102 127 146 339 404 819 896 1401 1435 29 27 70 60 90 73 20
13 53 41 72 61 19 21 59 53 88 72 28 18 52 38 52 42 0 10 164 153 241 211 26
19 71 55 100 79 30 24 68 50 86 57 18 8 37 23 43 33 13 26 134 123 240 194 47
31 113 78 147 105 132 100 170 125 239 157 52 24 76 41 90 66 15 24 41 44 90
69 38 19 93 54 122 79 30 24 68 51 85 60 18 9 60 36 95 60 35 23 87 53 116 66
28 13 58 30 66 39 7 10 54 41 104 70 50 29 107 63 126 74 19 12 80 45 135 73
55 28 125 64 155 80 30 16 66 29 80 29 15 0 35 10 46 23 12 14 43 28 77 37 31
7 57 19 57 25 0 20 35 45 63 45 15 0 36 9 47 20 24 24 62 40 92 40 32 0 100
36 133 70 16 16 37 30 47 30 16 0 75 22 108 41 44 25 110 52 145 61 22 5 57
20 77 33 21 14 45 25 53 25 32 0 181 53 201 71 11 11 33 19 48 19 15 0 61 18
102 39 42 22 96 43 122 46 26 3 58 12 72 20 36 19 133 45 219 58 42 7 76 17
79 25 6 18 68 42 109 42 18 0 50 7 70 15 19 8 49 15 65 15 16 0 41 6 56 14 16
8 55 19 87 25 33 6 78 18 100 26 22 8 77 14 122 15 71 0 85 3 110 24 22 18 45
25 112 30 47 4 102 15 123 23 26 10 52 13 80 9 26 -4 58 -1 87 8 54 17 302 49
323 41 8 -3 27 -1 43 5 52 20 753 31 1085 17 118 -4 154 -10 193 -27 41 -18
53 -20 82 -10 27 9 52 9 103 0 37 -7 103 -16 148 -20 44 -4 96 -12 115 -18 19
-6 81 -18 139 -26 104 -14 218 -36 295 -56 22 -6 68 -17 102 -25 34 -7 75 -21
92 -29 16 -9 49 -16 73 -16 25 0 56 -8 76 -20 18 -11 48 -20 66 -20 36 0 101
-23 111 -40 3 -5 26 -10 50 -10 26 0 76 -13 120 -30 42 -16 81 -30 88 -30 6 0
24 -6 39 -14 15 -8 41 -17 59 -21 18 -4 65 -21 103 -37 39 -16 92 -36 117 -44
25 -7 57 -22 70 -32 13 -11 38 -22 54 -26 17 -4 62 -22 100 -40 39 -19 106
-51 150 -71 131 -60 316 -156 381 -197 34 -21 64 -38 68 -38 9 0 93 -57 124
-85 13 -11 50 -33 82 -50 69 -35 196 -119 330 -218 137 -102 154 -114 223
-161 84 -57 428 -304 448 -322 43 -38 61 -2 39 78 -6 20 -15 65 -20 100 -5 35
-27 155 -50 268 -117 589 -134 724 -134 1030 0 148 5 256 17 345 19 142 44
270 58 297 5 10 14 41 19 70 21 112 53 204 132 386 80 183 160 323 191 335 7
3 19 23 25 45 7 22 31 65 55 96 23 30 60 81 82 112 22 31 68 82 103 114 34 32
62 62 62 68 0 18 60 82 117 124 29 21 53 45 53 53 0 21 63 65 93 65 20 0 27 6
32 29 4 17 23 44 46 63 22 18 58 49 82 68 23 20 56 44 72 55 17 10 34 24 38
32 4 7 36 32 70 55 34 23 77 54 95 70 18 15 52 37 75 49 23 12 53 32 67 45 14
12 59 39 101 58 42 20 79 42 83 51 3 8 16 20 28 25 13 6 53 27 90 48 187 105
235 130 258 137 14 4 29 14 35 21 5 7 42 25 80 40 39 15 86 38 105 51 19 12
40 23 47 23 7 0 38 12 70 26 32 14 81 33 108 41 28 8 64 23 81 34 17 10 40 19
50 19 11 0 33 9 49 20 17 11 36 20 44 20 8 0 37 11 65 24 81 38 126 56 202 81
39 13 86 30 105 38 19 9 63 22 99 31 107 25 166 43 199 60 17 9 65 21 106 26
76 10 137 30 149 49 4 6 21 11 37 11 17 0 44 7 61 16 18 10 44 14 62 11 19 -3
39 1 51 9 35 26 240 73 319 74 16 0 54 11 85 24 67 29 207 57 307 61 42 2 85
10 104 20 44 23 137 38 240 40 59 1 105 9 150 24 106 37 124 41 183 41 31 0
78 4 104 10 26 5 80 12 118 15 39 3 93 10 120 16 28 6 118 13 200 17 83 4 157
12 165 17 8 6 80 13 160 17 80 4 190 12 245 17 55 6 177 13 270 16 94 3 197
11 230 17 42 8 285 12 830 12 700 1 774 -1 811 -16 31 -13 59 -15 115 -12 89
7 611 -22 657 -35 18 -5 92 -13 165 -16 72 -4 161 -13 195 -21 37 -9 80 -13
101 -9 21 3 49 1 66 -6 30 -13 103 -21 320 -38 66 -5 131 -13 145 -19 14 -6
88 -20 165 -32 77 -11 163 -25 190 -31 47 -10 165 -27 330 -49 39 -4 83 -13
98 -19 16 -6 45 -11 65 -11 20 0 63 -9 96 -20 32 -11 95 -26 140 -34 44 -8
105 -24 134 -35 29 -12 78 -23 110 -26 31 -4 73 -10 92 -15 19 -5 69 -14 110
-21 41 -6 100 -24 130 -39 39 -19 78 -29 135 -34 46 -3 94 -14 115 -25 19 -10
58 -21 85 -25 28 -4 59 -13 70 -20 11 -7 43 -16 72 -19 29 -3 66 -13 82 -22
17 -8 61 -22 98 -29 38 -8 115 -27 173 -43 99 -28 210 -58 255 -69 49 -11 52
14 36 251 -6 83 -15 193 -20 245 -6 52 -8 129 -5 171 6 65 3 83 -14 120 -18
40 -49 216 -67 393 -4 32 -13 79 -21 105 -8 27 -18 89 -23 139 -5 49 -16 103
-24 119 -22 42 -47 137 -47 176 0 42 -51 241 -73 284 -9 17 -21 61 -27 98 -6
37 -16 77 -22 88 -14 27 -54 144 -83 242 -27 92 -33 109 -87 260 -22 61 -49
135 -60 165 -11 30 -33 85 -49 123 -16 37 -29 73 -29 81 0 7 -14 39 -30 70
-17 32 -43 90 -57 129 -14 40 -34 88 -44 107 -11 19 -19 41 -19 49 0 8 -11 33
-24 55 -13 23 -36 73 -50 111 -15 39 -34 81 -42 95 -8 14 -24 45 -34 70 -11
25 -29 61 -40 80 -42 73 -118 227 -130 265 -7 22 -23 53 -36 68 -13 16 -24 37
-24 47 0 9 -6 23 -14 29 -32 27 -236 398 -236 430 0 12 -12 34 -27 49 -16 15
-37 41 -48 59 -11 17 -42 64 -69 105 -27 40 -59 91 -70 113 -12 22 -47 78 -78
125 -164 252 -215 327 -297 445 -50 72 -102 150 -115 175 -13 25 -49 74 -79
108 -31 35 -76 95 -102 133 -25 37 -50 71 -56 75 -9 5 -88 107 -219 284 -20
25 -61 76 -91 111 -31 35 -74 87 -95 115 -22 28 -64 80 -94 116 -30 35 -101
119 -157 186 -57 66 -103 124 -103 128 0 4 -24 31 -53 58 -29 28 -81 85 -116
126 -35 41 -86 97 -113 124 -27 26 -109 116 -183 200 -74 83 -143 159 -154
169 -149 144 -245 245 -254 269 -3 9 -23 28 -44 41 -45 29 -113 94 -113 108 0
14 -109 119 -124 119 -8 0 -31 19 -52 43 -20 23 -45 47 -55 52 -10 6 -71 60
-136 121 -65 61 -146 134 -180 163 -35 28 -70 65 -78 81 -9 17 -22 30 -31 30
-22 0 -124 99 -124 121 0 37 -12 49 -48 49 -28 0 -45 8 -72 34 -19 19 -49 45
-67 58 -77 56 -400 327 -434 364 -15 16 -50 45 -79 64 -29 19 -79 58 -110 85
-59 51 -125 100 -166 123 -12 7 -35 27 -49 44 -15 18 -61 53 -102 79 -41 26
-81 56 -88 67 -8 10 -33 31 -57 47 -24 16 -55 40 -69 52 -14 13 -40 32 -57 41
-40 22 -187 128 -298 215 -47 37 -90 67 -95 67 -5 0 -26 15 -46 34 -21 18 -49
39 -63 46 -53 27 -190 132 -190 145 0 18 -31 35 -64 35 -16 0 -41 16 -72 45
-25 25 -53 45 -62 45 -9 0 -55 26 -102 57 -47 31 -102 68 -123 82 -21 13 -47
37 -58 52 -11 16 -39 34 -67 43 -42 14 -119 58 -242 137 -32 21 -116 72 -387
238 -57 35 -103 66 -103 71 0 4 -15 13 -32 20 -54 21 -170 81 -213 110 -22 15
-56 35 -75 43 -19 9 -80 43 -135 76 -55 33 -160 90 -233 126 -73 37 -147 79
-165 94 -18 15 -50 32 -72 39 -22 6 -83 35 -135 64 -104 57 -218 115 -347 173
-46 21 -90 46 -99 56 -10 11 -23 19 -30 19 -7 0 -26 12 -43 26 -17 14 -47 28
-68 31 -21 3 -114 44 -208 89 -93 46 -173 84 -177 84 -5 0 -55 23 -112 50 -57
28 -107 50 -110 50 -9 0 -111 45 -158 70 -20 11 -46 20 -56 20 -10 0 -39 13
-63 30 -24 16 -52 30 -62 30 -10 0 -42 11 -70 24 -29 14 -65 28 -82 32 -16 4
-43 16 -60 26 -16 10 -38 18 -48 18 -10 0 -66 21 -125 47 -59 25 -132 54 -162
64 -30 9 -93 31 -140 49 -47 17 -112 41 -145 52 -33 11 -71 28 -85 38 -14 9
-42 20 -64 23 -21 3 -62 15 -90 26 -28 11 -105 36 -171 57 -66 20 -136 44
-155 54 -91 44 -173 70 -219 70 -10 0 -43 11 -72 23 -30 13 -80 29 -112 35
-36 7 -71 22 -90 38 -24 20 -38 25 -63 21 -21 -4 -45 1 -70 15 -23 12 -69 23
-118 27 -47 5 -102 17 -131 30 -27 12 -76 26 -110 31 -33 4 -103 22 -155 39
-52 17 -106 31 -118 31 -13 0 -51 7 -85 15 -34 8 -89 19 -122 26 -33 6 -84 19
-113 30 -30 10 -73 19 -95 19 -23 1 -67 10 -97 21 -51 19 -134 38 -255 58
-135 23 -171 32 -207 51 -25 13 -58 20 -92 20 -30 0 -93 11 -140 25 -101 29
-115 30 -123 9z"/>
</g>
</svg>
